<?xml version="1.0" encoding="UTF-8" ?>
<svg xmlns="http://www.w3.org/2000/svg" version="1.1" id="logo-bluebirdday" viewBox="0 0 314 66" width="100%" height="100%">
    <g fill="none" fill-rule="evenodd">
        <path fill="#82C9CB" d="M23.05 49.655c3.728 6.543 10.055 6.019 14.061-1.167L45.72 33.05c4.006-7.185.624-13.207-7.519-13.282H20.707c-8.141-.076-11.753 5.135-8.026 11.68l10.37 18.207z"></path>
        <path fill="#166ECC" d="M11.839 29.968c3.727 6.544 10.054 6.02 14.06-1.166l8.608-15.438C38.514 6.179 35.131.157 26.988.082H9.496C1.355.006-2.258 5.217 1.47 11.76l10.37 18.207z"
            style="mix-blend-mode:multiply"></path>
        <path fill="#323234" d="M72.938 26.356c-.6-.404-.998-.486-1.997-.486h-2.996v4.453h2.996c.999 0 1.398-.12 1.997-.525.599-.405.799-1.012.799-1.7 0-.729-.2-1.337-.799-1.742M71.74 16.152c-.6-.404-.998-.404-1.998-.404h-1.797v4.049h1.797c1 0 1.399-.04 1.998-.446.599-.404.799-.89.799-1.578 0-.73-.2-1.215-.8-1.62m7.989 19.111c-1.797 1.215-4.594 1.822-7.19 1.822h-13.58V9.15h11.384c2.396 0 4.993.202 6.99 1.01 1.997.81 4.073 2.837 4.073 6.075 0 3.24-2.076 5.466-3.873 6.194 3.194.892 5.271 3.32 5.271 6.56 0 3.24-1.278 5.06-3.075 6.276zm4.87 1.822V9.149h8.986v27.937h-8.986zm33.548 0h-8.587l-.08-1.822c-.6.608-2.596 2.308-5.592 2.308-2.996 0-4.993-1.093-5.991-2.51-.999-1.418-1.518-3.037-1.518-6.074V16.437h8.987v10.931c0 2.025.718 2.754 1.917 2.754s1.877-.729 1.877-2.754V16.437h8.987v20.65zm24.041-8.18h-13.38c.32 1.904 2.316 2.309 3.914 2.309 1.598 0 3.794-.405 5.592-1.62l3.395 4.454c-.998.81-3.795 3.523-10.304 3.523-6.47 0-11.464-3.685-11.464-10.77 0-7.086 5.192-10.771 11.582-10.771 6.391 0 10.785 4.05 10.785 10.325 0 1.215-.12 2.55-.12 2.55zM134 24.13c-.08-1.416-1.078-2.43-2.595-2.43-1.478 0-2.477 1.014-2.597 2.43H134zm24.84 13.443c-2.596 0-4.993-.891-6.39-2.713l.119 2.227h-8.507V9.148h8.986v5.871c0 1.62-.08 3.24-.08 3.24s1.678-2.228 5.872-2.228c5.791 0 9.386 4.697 9.386 10.77 0 6.073-3.595 10.771-9.386 10.771zm-2.876-14.455c-1.718 0-3.196 1.214-3.196 3.563 0 2.308 1.478 3.522 3.196 3.522 1.678 0 3.195-1.214 3.195-3.522 0-2.349-1.517-3.563-3.195-3.563zm14.056 13.969v-20.65h8.986v20.65h-8.986zm4.472-21.378c-2.876 0-4.793-1.701-4.793-4.333s1.917-4.332 4.793-4.332c2.916 0 4.794 1.7 4.794 4.332 0 2.632-1.878 4.333-4.794 4.333zm22.886 9.029h-.4a6.05 6.05 0 0 0-2.596-.607c-1.198 0-2.237.566-2.796 1.336-.559.728-.798 1.902-.798 3.522v8.098H181.8v-20.65h8.987l-.121 2.632c1.319-2.226 2.916-3.037 5.112-3.037 1.4 0 1.997.406 1.997.406l-.398 8.3zm25.976 12.35h-8.508l.12-2.228c-1.398 1.822-3.794 2.713-6.39 2.713-5.791 0-9.387-4.698-9.387-10.77 0-6.074 3.596-10.77 9.387-10.77 4.193 0 5.872 2.227 5.872 2.227s-.08-1.62-.08-3.24V9.15h8.986v27.937zm-12.5-13.97c-1.678 0-3.196 1.214-3.196 3.563 0 2.308 1.518 3.522 3.195 3.522 1.718 0 3.196-1.214 3.196-3.522 0-2.349-1.478-3.563-3.196-3.563zm42.713 10.932c-2.596 2.025-6.191 3.038-10.985 3.038h-10.385V9.148h10.385c4.794 0 8.389 1.012 10.985 3.037 2.596 2.024 4.593 5.263 4.593 10.932 0 5.669-1.997 8.908-4.593 10.932zm-6.111-15.993c-.8-.81-2.197-1.417-4.195-1.417h-2.076v12.754h2.076c1.998 0 3.396-.607 4.195-1.417.798-.81 1.597-2.024 1.597-4.86 0-2.833-.759-4.25-1.597-5.06zm33.266 19.03h-8.508l-.199-1.822c-.998 1.012-2.597 2.308-5.193 2.308-3.794 0-7.788-1.7-7.788-6.762 0-5.061 5.033-6.235 7.988-6.357l4.713-.202v-.203c0-1.133-.919-1.943-3.315-1.943s-4.992 1.012-6.39 1.822l-2.197-5.749c1.997-.932 5.592-2.146 9.785-2.146 4.194 0 6.591.81 8.387 2.429 1.798 1.62 2.717 3.846 2.717 7.288v11.337zm-8.907-8.422l-1.797.122c-.96.04-1.997.405-1.997 1.62 0 1.214.998 1.618 1.997 1.618.999 0 1.597-.607 1.797-.81v-2.55zm34.667-12.228l-8.388 21.055c-1.518 3.846-3.195 7.085-7.789 7.085-4.593 0-7.389-1.214-7.389-1.214l1.798-6.479c.399.203 1.796.608 2.796.608.998 0 1.597-.203 1.797-1.215l-7.99-19.84h9.387l3.276 10.73 3.315-10.73h9.187zm2.193 21.095c-2.917 0-4.913-1.538-4.913-4.372 0-2.835 1.996-4.414 4.913-4.414 2.875 0 4.873 1.579 4.873 4.414 0 2.834-1.998 4.372-4.873 4.372z"></path>
        <path fill="#323234" fill-rule="nonzero" d="M66.068 58.554c-.501.866-1.587 1.341-2.646 1.341-2.06 0-3.815-1.565-3.815-3.968 0-2.404 1.754-3.941 3.815-3.941 1.059 0 2.145.447 2.646 1.285v-1.145h1.448V59.7h-1.448v-1.146zm-2.506-5.115c-1.365 0-2.451.978-2.451 2.488 0 1.48 1.086 2.515 2.45 2.515 1.337 0 2.507-.922 2.507-2.515 0-1.65-1.309-2.488-2.506-2.488zm111.218 6.048c-.544.973-1.723 1.507-2.872 1.507-2.238 0-4.143-1.758-4.143-4.457 0-2.7 1.905-4.426 4.143-4.426 1.149 0 2.328.503 2.872 1.444V52.3h1.573v8.506h-1.573v-1.319zm-2.721-5.744c-1.482 0-2.661 1.099-2.661 2.794 0 1.663 1.179 2.825 2.66 2.825 1.452 0 2.722-1.036 2.722-2.825 0-1.82-1.42-2.794-2.721-2.794zm10.22 9.73c1.785 0 2.904-1.035 2.904-3.86 0-.063-.03-.126-.03-.188-.484 1.004-1.724 1.569-2.873 1.569-2.238 0-4.143-1.726-4.143-4.394 0-2.7 1.905-4.457 4.143-4.457 1.149 0 2.328.533 2.873 1.506V52.3h1.572v7.22c0 4.017-1.784 5.524-4.475 5.524-1.512 0-2.903-.816-3.69-2.291.212-.095 1.12-.628 1.33-.722a2.76 2.76 0 0 0 2.39 1.444zm.152-9.73c-1.482 0-2.661 1.162-2.661 2.825 0 1.727 1.18 2.794 2.661 2.794 1.33 0 2.722-1.005 2.722-2.794 0-1.82-1.27-2.825-2.722-2.825zm14.334 3.422h-6.653c.181 1.412 1.27 2.322 2.661 2.322.968 0 1.905-.47 2.359-1.318.423.188.937.377 1.36.534-.695 1.506-2.177 2.26-3.78 2.26-2.328 0-4.203-1.758-4.203-4.457 0-2.7 1.845-4.395 4.204-4.395 2.358 0 4.082 1.727 4.082 4.395-.03.22-.03.502-.03.659zm-1.573-1.287c-.181-1.413-1.18-2.26-2.48-2.26-1.36 0-2.388.847-2.6 2.26h5.08zm4.869 4.928h-1.603V52.3h1.603v1.287c.484-1.005 1.663-1.444 2.57-1.444 2.026 0 3.145 1.38 3.145 3.766v4.928h-1.603v-4.802c0-1.413-.695-2.26-1.814-2.26-1.15 0-2.328.659-2.328 2.48v4.55h.03zm11.703-8.695c1.24 0 2.388.503 3.144 1.35l-1.21 1.067a2.692 2.692 0 0 0-1.934-.816c-1.482 0-2.752 1.067-2.752 2.794 0 1.726 1.27 2.856 2.752 2.856a2.6 2.6 0 0 0 1.935-.848l1.24 1.067c-.787.88-1.905 1.382-3.175 1.382-2.329 0-4.325-1.758-4.325-4.457 0-2.668 1.996-4.395 4.325-4.395zm5.322 12.838l1.723-4.395-3.296-8.254h1.694l2.449 6.152 2.48-6.152h1.693l-5.08 12.649zm-52.802-10.737l-3.74-8.255L158.343 47l2.231 4.88h-.24c-2.021 0-3.83 1.38-4.373 3.376l2.322.675c.271-.92 1.115-1.565 2.05-1.565 1.176 0 2.141.982 2.141 2.179 0 1.197-.965 2.179-2.14 2.179-.996 0-1.84-.676-2.082-1.688l-2.352.552c.483 2.118 2.292 3.56 4.433 3.56 2.503 0 4.554-2.087 4.554-4.634-.03-.86-.302-1.627-.603-2.302zm-84.528-5.647h-.061v4.972h-4.282v-5.064H72.82v.092h-.031v12.368h2.594v-.03h.03v-4.942h4.282v4.972h2.624v-.03h.06v-12.43h-2.623zm13.057 3.929h-2.442v.92c-.03-.03-.06-.092-.09-.123-.664-.828-1.81-.982-2.293-.982-2.11 0-4.222 1.688-4.222 4.39 0 1.534.694 2.761 1.69 3.498.753.583 1.658.92 2.593.92.603 0 1.779-.276 2.352-1.043v.829h.06v.03h2.443v-8.378h-.06v-.061h-.03zm-6.453 4.235c0-1.197 1.055-1.995 2.05-1.995.543 0 1.086.215 1.478.614.302.337.483.767.483 1.32 0 1.258-.996 1.994-1.99 1.994a2.17 2.17 0 0 1-1.388-.522 1.88 1.88 0 0 1-.633-1.411zm13.208-4.42c-.965 0-1.9.522-2.352 1.35v-1.104h-.03v-.061h-2.473v8.409h.03v.03h2.443v-4.45c0-1.289.663-1.718 1.508-1.718.542 0 .995.245 1.236.736.09.246.15.522.15.89v4.48h.031v.032h2.443V55.9c0-.736-.12-1.38-.332-1.903-.392-1.135-1.357-1.688-2.654-1.688zm10.796 1.197c-.392-.767-1.387-1.197-2.412-1.197-2.111 0-4.011 1.719-4.011 4.42 0 .521.06.982.211 1.442.513 1.842 2.08 2.977 3.8 2.977 1.025 0 2.02-.46 2.412-1.228v1.013h2.443V47.921h-2.443v5.585zm-.03 3.161c0 1.197-.875 2.026-1.9 2.026-.905 0-1.658-.583-1.87-1.535-.03-.122-.03-.276-.03-.43 0-1.196.875-1.994 1.9-1.994.935 0 1.78.644 1.9 1.75v.183zm9.258-4.358c-1.025 0-2.02.46-2.412 1.228v-1.043h-2.443v12.552h2.443V59.95c.422.767 1.387 1.166 2.412 1.166a3.898 3.898 0 0 0 3.498-2.179 4.94 4.94 0 0 0 .543-2.27c-.03-2.67-1.9-4.359-4.041-4.359zm-.482 2.425c1.055 0 1.9.798 1.9 2.025 0 .307-.061.584-.151.798-.302.706-.965 1.136-1.75 1.136-.995 0-1.9-.737-1.9-1.995 0-.215.03-.399.091-.583.272-.829.995-1.381 1.81-1.381zm7.147-6.844c-.634 0-1.207.368-1.418.92-.09.185-.15.4-.15.615 0 .828.693 1.473 1.537 1.473.573 0 1.086-.307 1.327-.798.12-.215.211-.491.211-.767 0-.798-.663-1.443-1.507-1.443zm-1.237 4.665h-.03v8.378h2.443v-.03h.03v-8.409h-2.443zm8.353-.245c-1.477 0-2.895.675-3.709 1.84-.512.707-.814 1.566-.814 2.579 0 2.64 2.11 4.388 4.493 4.388 1.026 0 1.99-.337 2.745-.92.361-.246.663-.583.904-.952l-1.99-1.442c0 .03-.03.03-.06.061-.09.123-.181.246-.272.338-.332.307-.784.46-1.266.46-1.056 0-2.051-.798-2.051-2.025 0-.491.18-.921.452-1.259.392-.43.965-.644 1.538-.644.634 0 1.267.307 1.599.86l1.99-1.443.06-.062c-.814-1.135-2.14-1.78-3.619-1.78zm9.047 3.866l3.438-3.682h-3.136l-.06.061-1.9 2.21V47.89h-2.443v.092h-.06v12.951h2.442v-.03h.061v-3.192l2.684 3.222h3.015l-.03-.03h.121z"></path>
        <path fill="#323234" fill-rule="nonzero" d="M150.563 52.31a4.62 4.62 0 0 0-2.503.736c-1.146.737-1.9 2.025-1.9 3.683 0 2.64 1.93 4.388 4.312 4.388.784 0 1.629-.153 2.352-.49.603-.277 1.146-.676 1.538-1.259l-1.779-1.228-.06.062-.03-.03a2.12 2.12 0 0 1-.543.49 2.524 2.524 0 0 1-1.146.276c-.845 0-1.87-.43-2.02-1.35h5.94v-.061h.09c.03-.215.03-.553.03-.768-.03-2.67-1.93-4.45-4.281-4.45zm-1.81 3.62c.09-.52.392-.859.724-1.104a2.145 2.145 0 0 1 1.025-.276c.664 0 1.568.399 1.72 1.38h-3.469z"></path>
    </g>
</svg>